<svg width="209" height="33" viewBox="0 0 209 33" fill="none" xmlns="http://www.w3.org/2000/svg">
<path d="M63.0846 9.18142C64.0136 3.49046 59.8832 0 53.2884 0H0L3.07093 9.75811H23.4159L27.6691 1.87422L29.9032 12.2545L41.0277 12.725L31.1316 19.6149L32.3983 30.2759L24.0531 24.1524L13.7194 30.2759L16.9208 23.0674H7.25508L10.1034 32.1198H49.204C56.0292 32.1198 60.9043 28.9101 61.8793 22.9839C62.3399 19.7742 61.0885 17.2019 59.0003 15.6388C61.2728 14.1364 62.6701 11.8903 63.0846 9.18142ZM54.3094 22.3086C54.0331 24.3725 52.2673 25.5638 50.0869 25.5638H43.8145L44.8356 18.9547H51.108C53.2423 18.9547 54.6319 20.1915 54.3094 22.3086ZM55.5148 9.81881C55.1923 11.8827 53.5647 13.074 51.3844 13.074H45.7646L46.7857 6.55599H52.4055C54.5398 6.56358 55.8372 7.75489 55.5148 9.81881Z" fill="white"/>
<path d="M18.4565 19.6077L11.3013 13.1807H4.146L6.18049 19.6456H18.4412L18.4565 19.6077Z" fill="white"/>
<path d="M77.4335 8.58203C69.6794 8.58203 64.2439 14.2275 63.3149 20.1461C62.1096 27.3091 66.9847 32.6738 73.6717 32.7193C77.8942 32.7648 81.848 31.2017 84.5811 28.3107L80.1667 24.5471C78.8231 25.875 76.7733 26.7476 74.5929 26.7476C72.3205 26.7476 70.2706 25.3742 69.9021 22.8018H87.1761C87.3603 22.0658 87.4985 21.3298 87.5446 20.6013C88.0666 13.3549 83.8902 8.58203 77.4335 8.58203ZM70.7005 18.1277C71.9519 15.4643 74.2782 14.273 76.5046 14.273C78.6389 14.273 80.5889 15.4188 81.1033 18.1277H70.7005Z" fill="white"/>
<path d="M100.427 15.7904H106.7L107.721 9.40891H101.402L102.469 2.7998H95.0838L94.0166 9.40891H89.3718L88.3047 15.7904H92.9955L91.7441 23.5908C90.8612 28.6368 93.8324 32.2183 99.5443 32.2183C100.934 32.2183 102.561 31.9907 104.281 31.4367L105.256 25.5181C104.419 25.8368 103.537 26.0265 102.7 26.0265C100.281 26.0265 98.9838 24.6531 99.36 22.3084L100.427 15.7904Z" fill="white"/>
<path d="M131.213 15.6539C133.486 14.1364 134.883 11.8903 135.298 9.18142C136.234 3.49046 132.096 0 125.501 0H112.266L107.114 32.1274H121.417C128.242 32.1274 133.117 28.9177 134.092 22.9915C134.561 19.7818 133.302 17.2095 131.213 15.6539ZM126.523 22.3086C126.246 24.3725 124.48 25.5638 122.3 25.5638H116.028L117.049 18.9547H123.321C125.455 18.9547 126.853 20.1915 126.523 22.3086ZM127.736 9.81881C127.413 11.8827 125.786 13.074 123.605 13.074H117.985L118.999 6.56358H124.619C126.761 6.56358 128.058 7.75489 127.736 9.81881Z" fill="#FFE71F"/>
<path d="M154.852 9.40877L154.437 12.1632C153.047 10.1903 150.952 8.99902 147.888 8.99902C141.616 8.99902 136.51 14.045 135.443 20.7452C134.376 27.4453 138.368 32.5368 144.172 32.5368C147.42 32.5368 149.838 31.4366 151.65 29.5548L151.236 32.1271H158.759L162.383 9.40877H154.852ZM153.04 20.7452C152.525 23.9549 149.93 26.163 147.005 26.163C144.172 26.163 142.268 23.8714 142.783 20.7452C143.343 17.6265 145.892 15.3274 148.771 15.3274C151.696 15.3274 153.6 17.6265 153.04 20.7452Z" fill="#FFE71F"/>
<path d="M174.176 14.1821C175.849 14.1821 176.962 15.1457 177.055 16.7544L183.649 15.0092C183.089 11.2911 179.98 8.71875 174.966 8.71875C169.669 8.71875 164.886 11.974 164.103 16.4281C163.542 19.5923 165.216 21.383 167.212 22.3012C170.928 23.9554 176.318 22.7109 175.941 24.9646C175.711 26.2924 174.268 27.1195 172.41 27.1195C170.183 27.1195 168.832 26.0648 168.418 24.4106L161.685 26.3835C162.337 30.2382 166.514 32.9926 171.251 32.9926C177.799 32.9926 182.352 29.965 183.135 25.0556C183.649 21.8459 182.022 20.1007 179.742 19.137C176.256 17.7105 170.636 18.7728 170.966 16.246C171.112 15.1002 172.502 14.1821 174.176 14.1821Z" fill="#FFE71F"/>
<path d="M198.835 8.58203C191.081 8.58203 185.646 14.2275 184.717 20.1461C183.511 27.3091 188.387 32.6738 195.073 32.7193C199.296 32.7648 203.25 31.2017 205.983 28.3107L201.568 24.5471C200.225 25.875 198.175 26.7476 195.995 26.7476C193.722 26.7476 191.672 25.3742 191.304 22.8018H208.578C208.762 22.0658 208.9 21.3298 208.946 20.6013C209.468 13.3549 205.292 8.58203 198.835 8.58203ZM192.102 18.1277C193.354 15.4643 195.68 14.273 197.906 14.273C200.041 14.273 201.991 15.4188 202.505 18.1277H192.102Z" fill="#FFE71F"/>
</svg>
